<svg width="30" height="26" fill="none" xmlns="http://www.w3.org/2000/svg"><path d="M23.2 19.6c-3.4-2-2.6-3.5.2-4.9 1.5-.7 4.8-3.4 6.1-2.5l-6.3 7.4Zm-2.3 2.5c-2-.1-4.3-.4-6.3.1 1.2.3 4.2 1.2 1.4 1.9 1 1.4 2.6 1.3 3.6.1-.4-.2-.7-.5-1-.7 1.1-.3 2.1-.9 2.3-1.4Zm1.2-1.6c-.9-.8-1.9-.8-2.7 0-1.2-2.1-5.4-1.4-7.4-1.7 1.1 2.6 9.6 3.1 10.1 1.7Zm-6.8-2.2c-1.6-.5-6.8-.4-3.4-1.8 1.1-.4 6.7.1 3.4 1.8Zm2-3c-.5-1.1.4-2.4 1.7-1.4 1.2.8-.6 2-1.7 1.4Zm-2.9.1c-2.3.7-5.3-.8-1.6-1.5 2.3-.5 4.7.5 1.6 1.5-.1 0 .1 0 0 0Zm-2.6-6.2c-.5 1.6-1.5 1.9-1.4 0 .1-2.3 1.6-1.7 3.2-2.6 1.3-.7 2-3.4 4.3-1.8 1 .7 2.2.1 2.5 1.2 0-.1-2.9 6.7-1.3 6.7-3.2 0-1.8-3.8-.6-6.4-1.2.6-3.1 4.3-1.5 5-.8 1.1-3.4 2.6-4.7 1.5-1.1-1-.5-2.3-.5-3.6Zm-4 2.8c-5.6 0-1.8-8.6.1-8.1 2.2.7 1.9 8.2-.1 8.1ZM1.6 3.8C-1 3.7.1 1.2 1.9.7 3.6.2 7.1 1.8 8.3 2.9c-1.8.6-4.1.5-6.1.6-.2-2-.7-1.3-.6.3Z" fill="#DC6243"/></svg>