<svg width="66" height="55" fill="none" xmlns="http://www.w3.org/2000/svg"><path d="M61.6 3.6V1.2h2.1l-2.1 2.4ZM12.4 13c.1.1 2.4-2.4 6.1-4.9 3.4-2.3 8.6-4.9 14.4-4.9 5.8 0 11.1 2.7 14.5 5 3.7 2.4 6 4.8 6.1 4.9l-2.5 3c-4.5.6-7.7 3.9-12.1 3.2-2.2-.4-2.3-1.6-2.9-2.9-.5-1-1.3-.8-2.3-1.2-.9-.4-1.5-1.1-3.4-.7-1.6.4-1.8 2.9-3.9 2.8-1.1-.1-1.2-1.6-2.8-3.6-4.1-4.9-7.9-4.2-10.5.3l19.6 23.3L12.4 13ZM4 1.2v1.9L2.4 1.2H4Zm53.9 0h3.2v3L57.9 8V1.2Zm-4.1 11.4V1.2h3.5v7.4l-3.5 4s.1 0 0 0Zm-.5-10.4v9.9c-1.1-1.1-2.3-2.1-3.6-3l3.6-6.9Zm-4.1-.3v6.8c-.5-.3-.9-.7-1.5-1-.7-.4-1.4-.9-2.2-1.3l3.7-4.5Zm-4.4-.2V6c-1-.5-2.1-1-3.1-1.5l3.1-2.8Zm.6-.5h3.7l-3.7 4.6V1.2Zm4.3 0h3.6l-3.6 7.1V1.2Zm-8.8 0h3.9l-3.5 3.1c-.1 0-.2-.1-.3-.1l-.1-3Zm-.5.4V4c-1-.4-2-.7-3.1-.9l3.1-1.5Zm-4.2 0v1.3L34 2.6l2.2-1Zm-6.8 0 2.2 1c-.8 0-1.5.1-2.2.3V1.6Zm-4.1 0 3.1 1.5c-1.1.2-2.1.5-3.1.9V1.6Zm3.6 1.2-3.3-1.6h3.3v1.6Zm3.5-.4-2.8-1.3h2.8v1.3Zm.7-1.2H36l-2.9 1.3V1.2Zm3.7 0H40l-3.2 1.6V1.2ZM24.4 4.3l-3.5-3.1h3.9v3l-.4.1Zm-3.6-2.6 3.1 2.7c-1.1.4-2.1.9-3.1 1.5V1.7Zm-4.3.2 3.6 4.5c-1.3.7-2.5 1.5-3.6 2.4V1.9Zm-4.2.3 3.6 7c-1.3 1-2.5 2-3.6 3.2V2.2Zm3.7 6-3.6-7.1H16v7.1Zm4.3-2.5-3.7-4.6h3.7v4.6ZM7.7 7.5 4.5 3.7V1.2h3.2v6.3Zm.6-6.3h3.5v11.2L8.3 8.2v-7ZM33.1 0H0v14.6l32.8 39.9.2-.3L66 15V0H33.1Z" fill="#491213"/></svg>