<svg width="64" height="37" fill="none" xmlns="http://www.w3.org/2000/svg"><path d="M14.1 12.9c.3.4.6.8.5 1.4 0 .4-.6 1-.2 1.2l1.5-1.8c-.4-.1-3.5-3.8-3.5-4.2l-2.1 1.1c.1.4.8 0 1.2 0 .5 0 .9.4 1.3.7-1.1.9-3.8 3.3-4.1 3.3-.1 0-.7-.4-.7 0 0 .2.6.7.7.8l1.4 1.7c.4-.2-.1-.5.1-.8.1-.2 3.2-2.7 3.9-3.4Zm-3.4-4.5c.3-.1.4.3.6 0L9.7 6.5c-.2-.3-.5-.6-.5 0 .1.4-4 3.7-4.2 3.8-.3.1-.5-.3-.7.1l1.4 1.7c.2.2.3.4.5.6.2.2.1-.4.1-.4-.1-.3.3-.6.6-.8 1-1 3.5-3.1 3.8-3.1ZM5 7.8c-1.1.3-2.4-.1-2.7-1.3-.4-1.2.4-2.4 1.3-3.1.9-.7 2.3-.6 2.8.5.2.5.1 1.1-.1 1.6-.1.3-.4.6 0 .8.6-.7 1.1-1.4 1.7-2.1-.7-.4-1-1.1-1.5-1.7-.6-.7-1.3-1.4-2.3-1.5C2.3.7.6 2.7.4 4.4c-.1.9.2 1.8.8 2.6.5.6 1.2 1.1 1.6 1.8.2.1 1.8-.7 2.1-.8.2 0 .1-.1.1-.2-.5.2 0 0 0 0Zm25.5 23.6c-.7-.5-2.6-3-3-3.5l-.2-.3-.2.1c-.1.1.1.4 0 .6-.5.8-3.7 3.2-3.9 3.4-.4.2-.8-.1-1 .2.5.6 1.8 2.3 2 2.3.3 0 .1-.5.1-.6.1-.2 1.7-1.6 2.3-2.1.2-.2.4.3.6.5.2.3.3.7.2 1-.1.2-.5.6-.2.8.4-.5 1.5-1.8 1.7-2 .2-.2-.4 0-.3-.1-.2.1-.5.2-.7 0-.1 0-.7-.7-.6-.8.3-.2.6-.6 1-.7.6-.1 1 1 1.1 1.4.1.4.1.8-.1 1.1-.1.3-.3.5 0 .6l1.4-1.9c0 .1-.1.1-.2 0-.1 0 .1.1 0 0Zm-9.2-8.9c-.7 0-1.4.3-2 .8a3.56 3.56 0 0 0-.5 4.8c1.3 1.7 3.4 1.9 5.1.7 1.4-1.2 1.6-3.3.5-4.8-.8-1-2-1.5-3.1-1.5Zm1.2 1.4c.9-.1 1.5.8 1.1 1.8-.4 1-1.4 2-2.4 2.4-1.2.5-2-.5-1.5-1.7.4-1 1.4-2 2.4-2.4.1 0 .2-.1.4-.1Zm-2.8-4.6c.3 0 .6.4.8 0l-1.4-1.7c-.4.2 0 .4-.1.6-.2.3-1.7.5-2.1.6.1-.4.6-1.7.8-1.8.4-.3.6.3.8-.1l-1.8-2.1c-.2-.2-.4-.7-.6-.4 0 0 0 1-.1 1.1-.1.2-.6 2.4-1.2 2.9a11 11 0 0 1-1.8 1.4c-.3.1-.5-.4-.8 0l1.6 1.9c.1.1.4.6.5.6.3.1 0-.6.1-.7.1-.3 1.6-1.8 2.3-1.9.9-.2 2-.5 3-.4.2 0-.2 0 0 0ZM43.9 26c.1.4.2.9.1 1.3-.1.6-.6 1.9-1.4 1.5-.8-.4-1.4-1.1-2.1-1.7.5-.6 1-1.1 1.9-.8.2.1.4 0 .2-.2-.3-.2-2-1.3-2.1-1.2-.2.2.3.6.1 1-.1.3-.4.5-.6.8-.5-.4-1.2-.8-.7-1.5.4-.4.8-.8 1.4-.9.4-.1 1.2.3 1.3-.1-.7-.3-1.4-.7-2.1-1 .1.5-2.2 2.9-2.7 3.5-.1.1-.4.4-.4.5 0 .3.4.1.4.1.3-.1 4.4 3.3 4.5 3.6.1.2-.1.4 0 .5 0 0 .1.1.2.1.3-.3 2.9-3.9 3.5-4l-1.5-2.4c-.4.2-.1.7 0 .9Zm-4 4.4c-1.3-.9-3.6.8-4 1-.7.3-1.2-.4-.8-1 .3-.5.9-.8 1.5-.8.2 0 .9.1.9 0 .1-.1.1-.1 0-.2-.6-.4-1.1-.8-1.7-1.1-.1.7-.9 1.1-1.3 1.6-.5.6-1 1.3-1 2s.4 1.4 1.1 1.7c.7.4 1.5.1 2.2-.3.4-.3.8-.6 1.2-.8.6-.3 1.5 0 1.3.8-.2.7-.9 1.3-1.6 1.5-.4.1-.8.1-1.2-.1-.3-.1-.6-.5-.8-.1l2.3 1.6c.1-.5.3-.7.7-1 .5-.4.9-.9 1.3-1.4.8-.9 1.1-2.5-.1-3.4ZM57.5 2.3c0 .1 0 .1 0 0l-.9 1-.8 1c-.2.2-.3.3 0 .5.5-.3 3.5 4.8 3.3 5.5-.5.2-4.5-3.3-4.6-3.5 0-.1.2-.7-.1-.6-.1 0-.5.6-.6.7l-.6.7c.2.3.3 0 .6 0 .2.1 1.2.9 1.5 1.1-.5 0-1.7.1-1.9.1-.6.1-.3-.4-.7-.6L51.2 10l-.9 1v.1c.2.2.1.1.4 0 .3-.1 4.3 3.2 4.4 3.4.2.3-.1.6.3.8l1.2-1.4c.1-.1.1-.1 0-.1-.3-.2-.3.1-.7.1-.3-.1-2.9-2.2-3.8-3l5.3-.2c.2 0 .7.6.7.8-.1.2-.3.4 0 .5.3-.4.6-.7.9-1.1l.1-.2c.1 0 .1-.1.1-.2l.1-.1c.3-.3 1.2-1.3 1.1-1.4-.3-.3-.4.3-.8 0-.2-.2-.8-1.2-.9-1.4-.2-.3.4-.6.6-.7.5-.3 2.1-.8 2.3.2 0 .2-.2.4-.1.5 0 0 .1.2.2.1l2.1-2.6-.2-.2c-.5.5-5.5-1.5-5.8-1.8-.1-.2-.1-.8-.3-.8Zm-.2 2.6c.8.3 1.5.6 2.3 1l-.6.3c-.2.1-.4.3-.6.5l-1.1-1.8Zm-6.6 7.7c-1.1-.1-2.2.4-3 1.3-1.2 1.5-1.1 3.7.4 4.9 1.5 1.2 3.7.9 4.9-.5 1.2-1.5 1.1-3.7-.4-4.9-.5-.4-1.2-.7-1.9-.8Zm-1.4 1.6c.6 0 1.3.4 1.7.7.8.5 2.2 1.7 1.5 2.7 0-.1.1-.1-.1.1-.8.8-2.2.1-2.9-.5-.7-.5-2-1.7-1.2-2.7.3-.2.6-.3 1-.3Zm-3.1 4.3c-1.2-.1-2.4.5-3.3 1.6-.6.8-1.3 1.5-1.9 2.3.2.3.5-.1.8.1.3.2 4.1 3.3 4.1 3.5.1.3-.2.4.1.6.1.1 2.9-3.4 3.2-4 .4-1.1.1-2.4-.8-3.2.1.1.2.1 0 0-.8-.6-1.5-.9-2.2-.9Zm-1.1 1.6h.3c1.4.4 3.4 2.1 2.1 3.6l-.4.4c-.2.2-4.2-3-4-3.2.4-.5 1.3-.9 2-.8Z" fill="#fff"/></svg>